<?xml version="1.0" encoding="utf-8"?>
<!-- Generator: Adobe Illustrator 23.0.6, SVG Export Plug-In . SVG Version: 6.00 Build 0)  -->
<svg version="1.1" id="Layer_1" xmlns="http://www.w3.org/2000/svg" xmlns:xlink="http://www.w3.org/1999/xlink" x="0px" y="0px"
	 viewBox="0 0 595.28 208" style="enable-background:new 0 0 595.28 208;" xml:space="preserve">
<style type="text/css">
	.st0{fill:#F0EFEF;}
	.st1{fill:#057F5B;}
	.st2{fill:#343332;}
</style>
<g>
	<path class="st0" d="M410.5,99.09c0.88,0.88,2.05,1.37,3.3,1.37s2.42-0.49,3.29-1.37l6.21-6.21c1.82-1.82,1.82-4.77,0-6.59
		l-6.21-6.2c-0.84-0.85-2.04-1.33-3.29-1.33c0,0,0,0,0,0c-1.25,0-2.45,0.48-3.29,1.33l-6.21,6.21c-1.82,1.82-1.82,4.77,0,6.59
		L410.5,99.09z"/>
	<path class="st0" d="M513.87,64.15c-1.55-0.54-3.21-0.13-4.25,1.01l-10.53,9.41c-0.12,0.11-0.24,0.23-0.34,0.36
		c-0.57,0.71-0.89,1.61-0.89,2.53v19.64l-2.43,1.95c-0.01-0.01-0.03-0.01-0.04-0.02c-0.59-0.3-1.26-0.63-1.48-0.93
		c-6.63-8.84-22.72-13.7-31.88-9.62c-9.21,4.1-12.27,9.8-13.21,13.86c-0.39,1.67,0.29,3.36,1.73,4.31c1.41,0.93,3.21,0.89,4.57-0.11
		c3.82-2.8,12.34-1.92,15.5-0.37c2.4,1.17,3.81,2.62,4.64,3.89c-21.42,0.29-47.13,0.48-53.59,0.15c-0.13-0.85-0.29-2.47-0.24-5.28
		c0.02-1.48-0.76-2.85-2.04-3.58c-1.28-0.73-2.86-0.7-4.12,0.07l-0.53,0.33c-0.11,0.07-0.22,0.15-0.35,0.24
		c-4.39,3.38-6.77,7.95-7.9,10.74h-39.01c-5.02-0.1-5.4-2.94-5.4-3.81V93.45c0-1.85-1.2-3.42-2.99-3.9
		c-1.79-0.49-3.61,0.27-4.55,1.87l-3.04,5.21c-0.33,0.56-0.51,1.2-0.55,1.85l-0.08,1.79l-11.03,5.96c-0.24,0.13-0.44,0.27-0.64,0.44
		c-1.79,1.49-10.51,9.29-6.98,16.35c3.07,6.15,13.88,6.56,18.37,6.44c1.35-0.03,2.59-0.73,3.31-1.87l0.67-1.06
		c2.21,4.01,5.94,4.97,7.96,4.86l43.57,0c0.2,0.01,0.41,0.02,0.61,0.02c3.09,0,5.91-1.43,8.06-4.06c1.37,1.37,2.82,2.28,3.45,2.65
		c0.23,0.14,0.44,0.24,0.67,0.32c5.51,2.03,31.65,0.77,53.29-0.71l-5.22,5.22c-1.92,1.92-1.92,5.04,0,6.96l5.84,5.84
		c0.93,0.93,2.16,1.44,3.48,1.44c1.32,0,2.55-0.51,3.48-1.44l5.84-5.84c1.92-1.92,1.92-5.04,0-6.96l-5.76-5.76
		c9.45-0.69,17.24-1.35,20.79-1.66c5.74-0.03,10.51-2.95,13.07-8.01c1.95-3.85,2.15-8.12,0.49-10.38c-0.13-0.18-0.24-0.35-0.35-0.53
		c-0.7-1.09-1.44-2.11-3.16-3.19l4.35-3.4c0.99-0.77,1.55-1.93,1.55-3.19V67.96C516.57,66.22,515.51,64.72,513.87,64.15z
		 M350.76,112.32c-0.33-0.02-0.65-0.04-0.96-0.06l0.89-0.36C350.71,112.04,350.73,112.18,350.76,112.32z"/>
	<path class="st0" d="M251.52,90.49c0.73-0.21,1.4-0.61,1.96-1.15l6.35-6.23c0.9-0.88,1.41-2.07,1.42-3.33
		c0.01-1.26-0.47-2.44-1.35-3.33l-6.42-6.48c-1.82-1.83-4.8-1.85-6.64-0.04l-2.3,2.26l-2.37-2.39c-1.82-1.83-4.8-1.85-6.65-0.04
		l-6.35,6.23c-0.66,0.65-1.11,1.46-1.31,2.34l-1.15-1.16c-1.81-1.83-4.79-1.86-6.65-0.04l-6.36,6.23c-0.9,0.88-1.4,2.07-1.41,3.32
		c-0.01,1.26,0.47,2.44,1.35,3.33l6.41,6.48c0.89,0.9,2.07,1.39,3.34,1.39c1.24,0,2.42-0.48,3.3-1.35l6.36-6.23
		c0.66-0.65,1.11-1.46,1.3-2.34l1.15,1.16c1.82,1.83,4.8,1.85,6.65,0.04l2.3-2.26l1.01,1.02c-0.09,0.1-0.17,0.2-0.24,0.31
		l-9.28,14.14c-0.48,0.73-0.62,1.63-0.38,2.48c0.24,0.84,0.84,1.53,1.63,1.9c2.54,1.16,3.8,2.19,4.43,2.91
		c-5.88-0.06-10.22-0.37-12.04-0.85c-0.95-0.25-1.61-3.68-1.45-6.2c0.06-1.02-0.38-1.99-1.2-2.6c-0.81-0.61-1.87-0.76-2.83-0.41
		c-6.08,2.23-7.52,7.55-7.86,10.07c-2.31,0.28-7.22,0.69-9.94-0.42c-2.67-1.09-5.44-6.22-6.55-9.2c-0.45-1.21-1.63-1.98-2.85-1.95
		c-1.27,0.02-2.39,0.84-2.79,2.03l-4.9,14.39c-0.42,1.23,0,2.58,1.04,3.37c1.96,1.47,2.78,6.13,2.97,8.64
		c-6.85,11.67-22.82,4.16-23.5,3.83c-0.95-0.46-2.08-0.38-2.97,0.21c-0.88,0.59-1.39,1.61-1.33,2.66
		c0.03,0.52,0.81,12.75,8.45,18.01c2.29,1.57,4.91,2.37,7.81,2.37c1.89,0,3.92-0.34,6.04-1.02c14.41-4.6,17.16-17.68,18.16-23.2
		c4.6,0.34,11.87-0.14,11.94-0.15c2.42-0.16,4.49-1.09,6.05-2.71c2.48,2.18,5.76,2.9,7.91,2.87c1.98,0.06,11.96,0.35,13.92,0.21
		c5.25-0.39,7.71-4.68,9.39-16.4C256.64,102.57,253.36,94.17,251.52,90.49z"/>
	<path class="st0" d="M174.17,114.6l-0.02-52.47c0-1.21-0.72-2.3-1.84-2.76c-1.11-0.47-2.39-0.23-3.26,0.62
		c-1.14,1.12-11.15,11.18-10.45,19.4l0.01,24.98c-1.83-8.98-6.5-15.8-6.83-16.28c-0.43-0.61-1.07-1.03-1.78-1.2l4.28-4.19
		c0.89-0.88,1.39-2.05,1.4-3.3c0.01-1.25-0.47-2.42-1.34-3.3l-6.25-6.32c-1.8-1.82-4.75-1.84-6.58-0.04l-6.19,6.07
		c-0.89,0.87-1.39,2.04-1.4,3.29c-0.01,1.25,0.47,2.42,1.34,3.3l6.25,6.32c0,0,0,0,0,0c0.88,0.89,2.05,1.37,3.31,1.37
		c0.23,0,0.46-0.03,0.68-0.07L139.2,99c-0.49,0.7-0.66,1.57-0.47,2.4c0.19,0.83,0.72,1.54,1.47,1.95c2.1,1.17,3.21,2.74,3.8,4.11
		c-3.88,0.49-10.92,1.22-14.29,0.64c-1.96-0.34-2.58-5.13-2.46-7.49c0.06-1.19-0.58-2.3-1.64-2.83c-1.06-0.54-2.34-0.4-3.26,0.36
		c-4.57,3.76-4.94,7.93-4.5,10.67c-10.41,0-21.42-0.11-23.51-0.42c-1.09-0.17-1.64-0.54-1.89-0.77l-0.01-44.05
		c0-1.04-0.55-2.02-1.44-2.56c-0.89-0.54-2.02-0.58-2.94-0.1c-8.25,4.29-7.94,16.67-7.92,17.17l0.01,33.62
		c0,15.65,12.85,17.7,12.99,17.72c0.12,0.02,0.25,0.03,0.38,0.03l21.46,0.33c-0.17,0.12-0.34,0.24-0.49,0.39l-6.19,6.07
		c-0.9,0.88-1.39,2.05-1.4,3.29c-0.01,1.25,0.47,2.42,1.34,3.3l6.25,6.32c0.88,0.89,2.05,1.38,3.31,1.38c1.23,0,2.39-0.47,3.27-1.33
		l2.19-2.15l2.25,2.28c0.88,0.89,2.05,1.38,3.31,1.38c1.23,0,2.4-0.47,3.27-1.33l6.19-6.07c0.89-0.88,1.39-2.05,1.4-3.29
		c0.01-1.25-0.47-2.42-1.34-3.3l-6.25-6.32l0,0c-1.8-1.81-4.75-1.83-6.58-0.04l-2.19,2.15l-2.25-2.27c-0.53-0.54-1.17-0.9-1.85-1.12
		c1.64-0.75,3.1-2.08,4.33-3.97c2.35,2.18,5.11,3.42,5.71,3.67c0.16,0.07,0.33,0.12,0.5,0.16c3.59,0.81,7.06,1.22,10.31,1.22
		c9.66,0,14.5-3.64,14.7-3.79c0.3-0.23,0.55-0.51,0.75-0.84c1.53-2.56,2.53-5.17,3.13-7.77l0,12.13c0,1.18,0.7,2.26,1.78,2.74
		c0.39,0.17,0.8,0.26,1.22,0.26c0.74,0,1.46-0.27,2.01-0.77c0.39-0.35,9.55-8.7,10.52-17.2
		C174.17,114.82,174.17,114.71,174.17,114.6z"/>
	<path class="st0" d="M345.11,86.34c0.88,0.88,2.05,1.36,3.3,1.36s2.42-0.49,3.29-1.36l2.21-2.21l2.2,2.21
		c0.88,0.88,2.05,1.36,3.3,1.36s2.42-0.48,3.29-1.36l6.21-6.21c1.81-1.82,1.81-4.77,0-6.59l-6.21-6.21c-1.81-1.81-4.77-1.81-6.59,0
		l-2.21,2.21l-2.21-2.21c-1.82-1.81-4.77-1.81-6.59,0l-6.21,6.21c-1.81,1.82-1.81,4.77,0,6.59L345.11,86.34z"/>
	<path class="st0" d="M191.27,97.05C191.27,97.05,191.27,97.05,191.27,97.05c0.89,0.9,2.07,1.39,3.34,1.39
		c1.24,0,2.42-0.48,3.3-1.35l6.36-6.23c0.9-0.88,1.41-2.07,1.42-3.33c0.01-1.26-0.47-2.44-1.36-3.33l-6.41-6.48
		c-1.81-1.84-4.8-1.86-6.65-0.04l-6.36,6.23c-0.9,0.88-1.4,2.06-1.41,3.32c-0.01,1.25,0.47,2.44,1.35,3.33L191.27,97.05z"/>
	<path class="st0" d="M340.49,153.29C340.49,153.29,340.49,153.29,340.49,153.29c-0.62-0.88-1.54-1.46-2.59-1.63
		c-1.05-0.17-2.14,0.09-3,0.72c-1.2,0.88-2.54,1.69-4.01,2.44c1.3-1.17,2.08-2.85,2.08-4.67v-9.38c0-0.56-0.16-1.1-0.45-1.57
		c0.29-0.47,0.45-1.01,0.45-1.58v-5.94c0-2.83-1.91-5.33-4.65-6.06l-12.94-3.46l3.93-1.89c1.45-0.69,2.33-2.12,2.31-3.72
		c-0.02-1.6-0.94-3.01-2.4-3.67l-4.57-2.06c3.8-0.53,6.58-0.71,7.49-0.76c1.97-0.11,3.58-1.67,3.73-3.65l0.55-7.15
		c0.15-2.04-1.25-3.84-3.27-4.2l-5.63-0.97l6.6-1.44c1.71-0.37,2.96-1.79,3.1-3.53l0.54-6.45c0.18-2.13-1.41-4.04-3.53-4.26
		l-5.95-0.62c3.68-1.47,5.94-4.86,6.84-7.86c0.12-0.38,0.18-0.77,0.18-1.17V50.89c0-1.22-0.55-2.35-1.5-3.1
		c-0.96-0.75-2.18-1.03-3.37-0.74l-8.81,2.1c-0.85,0.2-1.59,0.67-2.13,1.32c-0.61-0.14-1.26-0.14-1.89,0.02l-10.68,2.74
		c-1.75,0.45-2.97,2.03-2.97,3.83v6.9l-18.42,13.11c-1.04,0.74-1.67,1.95-1.67,3.22v3.77c0,1.99,1.49,3.67,3.46,3.92l9.1,1.15
		l-12.99,3.33c-1.75,0.45-2.97,2.03-2.97,3.83v1.91c0,1.97,1.41,3.61,3.36,3.91l5.54,0.84c-14.79,5.89-25.63,18.26-28.08,32.4
		c-2.3,13.3,3.72,25.25,16.5,32.8c9.66,5.71,21.12,8.6,34.06,8.6c20.13,0,37.91-7,42.87-9.15c1.09-0.47,1.91-1.4,2.23-2.55
		c0.33-1.15,0.12-2.37-0.56-3.35L340.49,153.29z M281.53,132.78v6.02c0,0.58,0.17,1.13,0.47,1.61c-0.3,0.48-0.47,1.03-0.47,1.61
		v9.53c0,1.43,0.49,2.77,1.33,3.85c-0.93-0.46-1.81-0.95-2.63-1.46c-6.36-4.04-8.91-9.54-7.57-16.36
		c1.72-8.77,8.19-15.69,19.22-20.59c0,0.1-0.01,0.21,0,0.31c0.05,1.64,1.07,3.08,2.59,3.67l4.55,1.78l-13.07,4.04
		C283.3,127.6,281.53,130.01,281.53,132.78z"/>
</g>
<path class="st1" d="M347.23,84.22l-6.21-6.21c-0.65-0.65-0.65-1.7,0-2.35l6.21-6.21c0.65-0.65,1.7-0.65,2.35,0l6.21,6.21
	c0.65,0.65,0.65,1.7,0,2.35l-6.21,6.21C348.93,84.87,347.88,84.87,347.23,84.22z"/>
<path class="st1" d="M358.23,84.22l-6.21-6.21c-0.65-0.65-0.65-1.7,0-2.35l6.21-6.21c0.65-0.65,1.7-0.65,2.35,0l6.21,6.21
	c0.65,0.65,0.65,1.7,0,2.35l-6.21,6.21C359.93,84.87,358.88,84.87,358.23,84.22z"/>
<path class="st1" d="M412.63,96.97l-6.21-6.21c-0.65-0.65-0.65-1.7,0-2.35l6.21-6.21c0.65-0.65,1.7-0.65,2.35,0l6.21,6.21
	c0.65,0.65,0.65,1.7,0,2.35l-6.21,6.21C414.32,97.62,413.27,97.62,412.63,96.97z"/>
<path class="st1" d="M474.93,145.51l-5.84-5.84c-0.75-0.75-0.75-1.96,0-2.71l5.84-5.84c0.75-0.75,1.96-0.75,2.71,0l5.84,5.84
	c0.75,0.75,0.75,1.96,0,2.71l-5.84,5.84C476.89,146.26,475.68,146.26,474.93,145.51z"/>
<path class="st1" d="M511.76,110.79c-1.01-1.37-1.06-2.44-5.13-4.2c-0.73-0.31-0.86-1.29-0.23-1.78l6.77-5.29
	c0.25-0.2,0.4-0.5,0.4-0.82V67.96c0-0.98-1.24-1.42-1.85-0.65L501.1,76.8c-0.15,0.18-0.23,0.41-0.23,0.65v20.58
	c0,0.32-0.14,0.61-0.39,0.81l-4.17,3.35c-0.34,0.27-0.81,0.31-1.19,0.08c-1.19-0.72-2.71-1.18-3.61-2.39
	c-6.13-8.17-20.6-12.09-28.26-8.68c-8.32,3.7-10.79,8.69-11.51,11.8c-0.21,0.93,0.83,1.67,1.6,1.1c5.04-3.7,14.94-2.43,18.59-0.65
	c5.23,2.56,6.81,6.33,7.29,8.28c0.16,0.65-0.33,1.26-1,1.27c-8.31,0.12-56.99,0.76-58.54-0.02c-1.2-0.6-1.3-5.38-1.25-8.12
	c0.01-0.82-0.88-1.33-1.59-0.9l-0.51,0.31c-0.04,0.02-0.08,0.05-0.11,0.08c-4.64,3.58-6.75,8.79-7.39,10.66
	c-0.14,0.42-0.54,0.7-0.98,0.7h-40.43c-8.51-0.17-8.34-6.81-8.34-6.81V93.45c0-1.06-1.41-1.44-1.94-0.52l-3.04,5.22
	c-0.08,0.15-0.13,0.31-0.14,0.48l-0.13,2.9c-0.02,0.37-0.22,0.69-0.54,0.87l-11.99,6.48c-0.06,0.03-0.11,0.07-0.17,0.11
	c-0.87,0.73-8.8,7.55-6.22,12.7c2.39,4.78,13.06,4.84,15.62,4.78c0.35-0.01,0.66-0.19,0.85-0.48l2.85-4.47
	c0.51-0.8,1.73-0.55,1.9,0.38c1.26,6.85,6.36,6.5,6.36,6.5h43.74c3.95,0.26,6.29-2.65,7.49-4.85c0.39-0.71,1.38-0.71,1.8-0.02
	c1.29,2.11,3.75,3.61,4.24,3.9c0.06,0.03,0.11,0.06,0.17,0.08c8.58,3.16,80.59-3.1,80.59-3.1
	C510.91,124.4,513.63,113.34,511.76,110.79z M344.61,114.53c-0.13-0.52,0.42-2.4,0.7-3.28c0.09-0.3,0.31-0.53,0.6-0.65l6.5-2.65
	c0.78-0.32,1.6,0.38,1.4,1.21c-0.49,2.03,0.04,3.65,0.68,4.75c0.42,0.71-0.12,1.59-0.94,1.56
	C350.29,115.32,344.73,115.01,344.61,114.53z"/>
<path class="st1" d="M238.48,104.02l9.28-14.14c0,0,6.31,9.51,4.38,22.9c-1.92,13.39-4.71,13.69-6.64,13.84
	c-1.93,0.14-13.67-0.21-13.67-0.21s-6.65,0.25-8.23-5.96c0,0-0.52,5.46-5.95,5.82c-5.43,0.36-12.43,0.4-13.83-0.22
	c-1.4-0.62,0.18,18.22-16.98,23.7s-18.39-16.67-18.39-16.67s19.79,9.55,27.84-5.84c0,0-0.18-8.72-4.21-11.74l4.9-14.39
	c0,0,3.33,8.94,8.23,10.93s14.01,0.22,14.01,0.22s-0.88-7.33,5.95-9.84c0,0-0.52,8.18,3.68,9.29c4.2,1.11,15.93,0.95,15.93,0.95
	S247.94,108.35,238.48,104.02z"/>
<path class="st1" d="M171.16,62.13c0,0-10.23,10.03-9.55,17.17l0.02,50.6c0,0,8.7-7.84,9.55-15.3l-0.01-38.71L171.16,62.13
	L171.16,62.13z"/>
<path class="st1" d="M141.65,100.72l7.67-10.92c0,0,12.97,18.54,3.59,34.19c0,0-7.16,5.49-22.52,2.02c0,0-6.66-2.82-7.34-7.25
	c0,0-1.87,7.75-6.82,8.03l-22.69-0.36c0,0-10.41-1.5-10.41-14.75l-0.01-33.62c0,0-0.34-11.04,6.31-14.5l0.01,44.83
	c0,0,0.68,2.39,4.44,2.96s28.32,0.44,28.32,0.44s-4.44-6.01,2.04-11.34c0,0-0.51,9.67,4.95,10.61c5.46,0.93,18.43-1.07,18.43-1.07
	S147.62,104.04,141.65,100.72z"/>
<path class="st1" d="M237.66,87l-6.41-6.48c-0.66-0.67-0.65-1.74,0.03-2.4l6.36-6.23c0.67-0.66,1.75-0.66,2.41,0.01l6.41,6.48
	c0.66,0.67,0.65,1.74-0.03,2.4l-6.36,6.23C239.4,87.68,238.32,87.67,237.66,87z"/>
<path class="st1" d="M248.97,87.18l-6.41-6.48c-0.66-0.67-0.65-1.74,0.03-2.4l6.36-6.23c0.67-0.66,1.75-0.66,2.41,0.01l6.41,6.48
	c0.66,0.67,0.65,1.74-0.03,2.4l-6.36,6.23C250.71,87.85,249.63,87.85,248.97,87.18z"/>
<path class="st1" d="M222.2,94.37l-6.41-6.48c-0.66-0.67-0.65-1.74,0.03-2.4l6.36-6.23c0.67-0.66,1.75-0.66,2.41,0.01l6.41,6.48
	c0.66,0.67,0.65,1.74-0.03,2.4l-6.36,6.23C223.94,95.04,222.86,95.04,222.2,94.37z"/>
<path class="st1" d="M193.4,94.94l-6.41-6.48c-0.66-0.67-0.65-1.74,0.03-2.4l6.36-6.23c0.67-0.66,1.75-0.66,2.41,0.01l6.41,6.48
	c0.66,0.67,0.65,1.74-0.03,2.4l-6.36,6.23C195.14,95.61,194.06,95.61,193.4,94.94z"/>
<path class="st1" d="M143.64,86.61l-6.25-6.32c-0.64-0.65-0.63-1.7,0.03-2.34l6.19-6.07c0.66-0.64,1.71-0.64,2.35,0.01l6.25,6.32
	c0.64,0.65,0.63,1.7-0.03,2.34l-6.19,6.07C145.33,87.26,144.28,87.26,143.64,86.61z"/>
<path class="st1" d="M127.62,147.21l-6.25-6.32c-0.64-0.65-0.63-1.7,0.03-2.34l6.19-6.07c0.66-0.64,1.71-0.64,2.35,0.01l6.25,6.32
	c0.64,0.65,0.63,1.7-0.03,2.34l-6.19,6.07C129.31,147.86,128.26,147.85,127.62,147.21z"/>
<path class="st1" d="M116.59,147.03l-6.25-6.32c-0.64-0.65-0.63-1.7,0.03-2.34l6.19-6.07c0.66-0.64,1.71-0.64,2.35,0.01l6.25,6.32
	c0.64,0.65,0.63,1.7-0.03,2.34l-6.19,6.07C118.29,147.69,117.24,147.68,116.59,147.03z"/>
<path class="st2" d="M322.31,53.09v15.7c0,0.1-0.01,0.19-0.04,0.28c-0.3,0.98-2.22,6.49-7.96,6.49c-5.09,0-9.85-1.67-11.48-2.31
	c-0.37-0.14-0.78-0.04-1.05,0.25l-3.39,3.73c-0.53,0.58-0.17,1.51,0.61,1.59l24.93,2.6c0.52,0.05,0.9,0.51,0.85,1.03l-0.54,6.44
	c-0.04,0.42-0.34,0.76-0.75,0.85l-16.83,3.66c-1.03,0.22-0.99,1.7,0.04,1.88l15.94,2.76c0.49,0.08,0.83,0.52,0.79,1.01l-0.55,7.14
	c-0.04,0.48-0.42,0.85-0.9,0.88c-6.36,0.34-47.1,3.57-52.27,29.92c-5.54,28.22,47.08,32.4,66.96,17.79
	c0.44-0.32,1.04-0.23,1.35,0.21l5.9,8.45c0.35,0.5,0.15,1.18-0.4,1.42c-6.81,2.94-44.93,18.02-74.22,0.72
	c-30.15-17.81-12.37-56.13,19.66-62.33c1.05-0.2,1.01-1.72-0.05-1.88l-14.65-2.22c-0.47-0.07-0.81-0.47-0.81-0.94v-1.91
	c0-0.44,0.3-0.82,0.72-0.93l23.37-6c1.02-0.26,0.93-1.74-0.12-1.87l-19.73-2.49c-0.48-0.06-0.84-0.47-0.84-0.95V80.3
	c0-0.31,0.15-0.6,0.4-0.78l19.28-13.73c0.25-0.18,0.4-0.47,0.4-0.78v-7.96c0-0.44,0.3-0.82,0.72-0.93l10.68-2.74
	c0.6-0.16,1.19,0.3,1.19,0.93v9.66v4.09c0,0,0,2.04,2.04,0.51V52.99c0-0.44,0.3-0.83,0.73-0.93l8.81-2.1
	c0.6-0.14,1.18,0.31,1.18,0.93V53.09z"/>
<path class="st2" d="M306.82,122.57l-11.25-4.4c-0.88-0.35-0.92-1.58-0.06-1.98l11.3-5.21c0.28-0.13,0.61-0.13,0.89,0l10.3,4.64
	c0.83,0.38,0.85,1.55,0.02,1.95l-10.35,4.96C307.4,122.67,307.09,122.68,306.82,122.57z"/>
<g>
	<path class="st2" d="M306.12,130.49c0.32-0.12,0.66-0.13,0.99-0.03l22.87,7.16v-5.94c0-1.48-1-2.78-2.43-3.16l-18.96-5.07
		c-0.59-0.16-1.22-0.15-1.81,0.03l-19.94,6.16c-1.37,0.42-2.31,1.69-2.31,3.13v6.02L306.12,130.49z"/>
	<path class="st2" d="M306.71,133.48l-22.18,8.53v9.53c0,1.46,0.97,2.75,2.38,3.15l18.94,5.35c0.64,0.18,1.31,0.16,1.94-0.05
		l19.96-6.75c1.33-0.45,2.22-1.7,2.22-3.1v-9.38L306.71,133.48z"/>
</g>
</svg>
