<?xml version="1.0" encoding="utf-8"?>
<!-- Generator: Adobe Illustrator 23.0.6, SVG Export Plug-In . SVG Version: 6.00 Build 0)  -->
<svg version="1.1" id="Layer_1" xmlns="http://www.w3.org/2000/svg" xmlns:xlink="http://www.w3.org/1999/xlink" x="0px" y="0px"
	 viewBox="0 0 595.28 208" style="enable-background:new 0 0 595.28 208;" xml:space="preserve">
<path d="M343.07,76.36l-6.21-6.21c-0.65-0.65-0.65-1.7,0-2.35l6.21-6.21c0.65-0.65,1.7-0.65,2.35,0l6.21,6.21
	c0.65,0.65,0.65,1.7,0,2.35l-6.21,6.21C344.77,77.01,343.71,77.01,343.07,76.36z"/>
<path d="M354.07,76.36l-6.21-6.21c-0.65-0.65-0.65-1.7,0-2.35l6.21-6.21c0.65-0.65,1.7-0.65,2.35,0l6.21,6.21
	c0.65,0.65,0.65,1.7,0,2.35l-6.21,6.21C355.77,77.01,354.71,77.01,354.07,76.36z"/>
<path d="M408.46,89.12l-6.21-6.21c-0.65-0.65-0.65-1.7,0-2.35l6.21-6.21c0.65-0.65,1.7-0.65,2.35,0l6.21,6.21
	c0.65,0.65,0.65,1.7,0,2.35l-6.21,6.21C410.16,89.77,409.11,89.77,408.46,89.12z"/>
<path d="M470.76,137.65l-5.84-5.84c-0.75-0.75-0.75-1.96,0-2.71l5.84-5.84c0.75-0.75,1.96-0.75,2.71,0l5.84,5.84
	c0.75,0.75,0.75,1.96,0,2.71l-5.84,5.84C472.73,138.4,471.51,138.4,470.76,137.65z"/>
<path d="M507.6,102.93c-1.01-1.37-1.06-2.44-5.13-4.2c-0.73-0.31-0.86-1.29-0.23-1.78l6.77-5.29c0.25-0.2,0.4-0.5,0.4-0.82V60.11
	c0-0.98-1.24-1.42-1.85-0.65l-10.62,9.49c-0.15,0.18-0.23,0.41-0.23,0.65v20.58c0,0.32-0.14,0.61-0.39,0.81l-4.17,3.35
	c-0.34,0.27-0.81,0.31-1.19,0.08c-1.19-0.72-2.71-1.18-3.61-2.39c-6.13-8.17-20.6-12.09-28.26-8.68c-8.32,3.7-10.79,8.69-11.51,11.8
	c-0.21,0.93,0.83,1.67,1.6,1.1c5.04-3.7,14.94-2.43,18.59-0.65c5.23,2.56,6.81,6.33,7.29,8.28c0.16,0.65-0.33,1.26-1,1.27
	c-8.31,0.12-56.99,0.76-58.54-0.02c-1.2-0.6-1.3-5.38-1.25-8.12c0.01-0.82-0.88-1.33-1.59-0.9l-0.51,0.31
	c-0.04,0.02-0.08,0.05-0.11,0.08c-4.64,3.58-6.75,8.79-7.39,10.66c-0.14,0.42-0.54,0.7-0.98,0.7h-40.43
	c-8.51-0.17-8.34-6.81-8.34-6.81V85.6c0-1.06-1.41-1.44-1.94-0.52l-3.04,5.22c-0.08,0.15-0.13,0.31-0.14,0.48l-0.13,2.9
	c-0.02,0.37-0.22,0.69-0.54,0.87l-11.99,6.48c-0.06,0.03-0.11,0.07-0.17,0.11c-0.87,0.73-8.8,7.55-6.22,12.7
	c2.39,4.78,13.06,4.84,15.62,4.78c0.35-0.01,0.66-0.19,0.85-0.48l2.85-4.47c0.51-0.8,1.73-0.55,1.9,0.38
	c1.26,6.85,6.36,6.5,6.36,6.5h43.74c3.95,0.26,6.29-2.65,7.49-4.85c0.39-0.71,1.38-0.71,1.8-0.02c1.29,2.11,3.75,3.61,4.24,3.9
	c0.06,0.03,0.11,0.06,0.17,0.08c8.58,3.16,80.59-3.1,80.59-3.1C506.74,116.55,509.47,105.49,507.6,102.93z M340.45,106.68
	c-0.13-0.52,0.42-2.4,0.7-3.28c0.09-0.3,0.31-0.53,0.6-0.65l6.5-2.65c0.78-0.32,1.6,0.38,1.4,1.21c-0.49,2.03,0.04,3.65,0.68,4.75
	c0.42,0.71-0.12,1.59-0.94,1.56C346.13,107.47,340.57,107.16,340.45,106.68z"/>
<path d="M234.31,96.17l9.28-14.14c0,0,6.31,9.51,4.38,22.9c-1.92,13.39-4.71,13.69-6.64,13.84c-1.93,0.14-13.67-0.21-13.67-0.21
	s-6.65,0.25-8.23-5.96c0,0-0.52,5.46-5.95,5.82c-5.43,0.36-12.43,0.4-13.83-0.22s0.18,18.22-16.98,23.7s-18.39-16.67-18.39-16.67
	s19.79,9.55,27.84-5.84c0,0-0.18-8.72-4.21-11.74l4.9-14.39c0,0,3.33,8.94,8.23,10.93s14.01,0.22,14.01,0.22s-0.88-7.33,5.95-9.84
	c0,0-0.52,8.18,3.68,9.29c4.2,1.11,15.93,0.95,15.93,0.95S243.77,100.5,234.31,96.17z"/>
<path d="M166.99,54.28c0,0-10.23,10.03-9.55,17.17l0.02,50.6c0,0,8.7-7.84,9.55-15.3l-0.01-38.71L166.99,54.28L166.99,54.28z"/>
<path d="M137.48,92.87l7.67-10.92c0,0,12.97,18.54,3.59,34.19c0,0-7.16,5.49-22.52,2.02c0,0-6.66-2.82-7.34-7.25
	c0,0-1.87,7.75-6.82,8.03l-22.69-0.36c0,0-10.41-1.5-10.41-14.75l-0.01-33.62c0,0-0.34-11.04,6.31-14.5l0.01,44.83
	c0,0,0.68,2.39,4.44,2.96c3.75,0.57,28.32,0.44,28.32,0.44s-4.44-6.01,2.04-11.34c0,0-0.51,9.67,4.95,10.61
	c5.46,0.93,18.43-1.07,18.43-1.07S143.46,96.19,137.48,92.87z"/>
<path d="M233.49,79.15l-6.41-6.48c-0.66-0.67-0.65-1.74,0.03-2.4l6.36-6.23c0.67-0.66,1.75-0.66,2.41,0.01l6.41,6.48
	c0.66,0.67,0.65,1.74-0.03,2.4l-6.36,6.23C235.23,79.82,234.15,79.82,233.49,79.15z"/>
<path d="M244.81,79.33l-6.41-6.48c-0.66-0.67-0.65-1.74,0.03-2.4l6.36-6.23c0.67-0.66,1.75-0.66,2.41,0.01l6.41,6.48
	c0.66,0.67,0.65,1.74-0.03,2.4l-6.36,6.23C246.55,80,245.47,80,244.81,79.33z"/>
<path d="M218.04,86.52l-6.41-6.48c-0.66-0.67-0.65-1.74,0.03-2.4l6.36-6.23c0.67-0.66,1.75-0.66,2.41,0.01l6.41,6.48
	c0.66,0.67,0.65,1.74-0.03,2.4l-6.36,6.23C219.78,87.19,218.7,87.18,218.04,86.52z"/>
<path d="M189.23,87.09l-6.41-6.48c-0.66-0.67-0.65-1.74,0.03-2.4l6.36-6.23c0.67-0.66,1.75-0.66,2.41,0.01l6.41,6.48
	c0.66,0.67,0.65,1.74-0.03,2.4l-6.36,6.23C190.97,87.76,189.89,87.75,189.23,87.09z"/>
<path d="M139.47,78.75l-6.25-6.32c-0.64-0.65-0.63-1.7,0.03-2.34l6.19-6.07c0.66-0.64,1.71-0.64,2.35,0.01l6.25,6.32
	c0.64,0.65,0.63,1.7-0.03,2.34l-6.19,6.07C141.17,79.41,140.12,79.4,139.47,78.75z"/>
<path d="M123.45,139.35l-6.25-6.32c-0.64-0.65-0.63-1.7,0.03-2.34l6.19-6.07c0.66-0.64,1.71-0.64,2.35,0.01l6.25,6.32
	c0.64,0.65,0.63,1.7-0.03,2.34l-6.19,6.07C125.15,140.01,124.1,140,123.45,139.35z"/>
<path d="M112.43,139.18l-6.25-6.32c-0.64-0.65-0.63-1.7,0.03-2.34l6.19-6.07c0.66-0.64,1.71-0.64,2.35,0.01l6.25,6.32
	c0.64,0.65,0.63,1.7-0.03,2.34l-6.19,6.07C114.12,139.83,113.07,139.83,112.43,139.18z"/>
<path d="M318.15,45.23v15.7c0,0.1-0.01,0.19-0.04,0.28c-0.3,0.98-2.22,6.49-7.96,6.49c-5.09,0-9.85-1.67-11.48-2.31
	c-0.37-0.14-0.78-0.04-1.05,0.25l-3.39,3.73c-0.53,0.58-0.17,1.51,0.61,1.59l24.93,2.6c0.52,0.05,0.9,0.51,0.85,1.03l-0.54,6.44
	c-0.04,0.42-0.34,0.76-0.75,0.85l-16.83,3.66c-1.03,0.22-0.99,1.7,0.04,1.88l15.94,2.76c0.49,0.08,0.83,0.52,0.79,1.01l-0.55,7.14
	c-0.04,0.48-0.42,0.85-0.9,0.88c-6.36,0.34-47.1,3.57-52.27,29.92c-5.54,28.22,47.08,32.4,66.96,17.79
	c0.44-0.32,1.04-0.23,1.35,0.21l5.9,8.45c0.35,0.5,0.15,1.18-0.4,1.42c-6.81,2.94-44.93,18.02-74.22,0.72
	c-30.15-17.81-12.37-56.13,19.66-62.33c1.05-0.2,1.01-1.72-0.05-1.88l-14.65-2.22c-0.47-0.07-0.81-0.47-0.81-0.94v-1.91
	c0-0.44,0.3-0.82,0.72-0.93l23.37-6c1.02-0.26,0.93-1.74-0.12-1.87l-19.73-2.49c-0.48-0.06-0.84-0.47-0.84-0.95v-3.77
	c0-0.31,0.15-0.6,0.4-0.78l19.28-13.73c0.25-0.18,0.4-0.47,0.4-0.78v-7.96c0-0.44,0.3-0.82,0.72-0.93l10.68-2.74
	c0.6-0.16,1.19,0.3,1.19,0.93v9.66v4.09c0,0,0,2.04,2.04,0.51V45.14c0-0.44,0.3-0.83,0.73-0.93l8.81-2.1
	c0.6-0.14,1.18,0.31,1.18,0.93V45.23z"/>
<path d="M302.65,114.72l-11.25-4.4c-0.88-0.35-0.92-1.58-0.06-1.98l11.3-5.21c0.28-0.13,0.61-0.13,0.89,0l10.3,4.64
	c0.83,0.38,0.85,1.55,0.02,1.95l-10.35,4.96C303.24,114.82,302.93,114.83,302.65,114.72z"/>
<g>
	<path d="M301.95,122.64c0.32-0.12,0.66-0.13,0.99-0.03l22.87,7.16v-5.94c0-1.48-1-2.78-2.43-3.16l-18.96-5.07
		c-0.59-0.16-1.22-0.15-1.81,0.03l-19.94,6.16c-1.37,0.42-2.31,1.69-2.31,3.13v6.02L301.95,122.64z"/>
	<path d="M302.54,125.63l-22.18,8.53v9.53c0,1.46,0.97,2.75,2.38,3.15l18.94,5.35c0.64,0.18,1.31,0.16,1.94-0.05l19.96-6.75
		c1.33-0.45,2.22-1.7,2.22-3.1v-9.38L302.54,125.63z"/>
</g>
</svg>
